<svg class="svg-icon" fill="currentColor" style="" viewbox="0 0 96 96"> <title></title> <path d="M60.544 0H38.608C26.128 0 16 10.128 16 22.656V43.2l14.4-24S40 33.6 64 33.6c0 0 9.6 14.4 19.2 14.4V22.656C83.2 10.128 73.072 0 60.544 0M68.8 64.224c0-3.888-2.64-7.296-6.432-8.208L49.6 52.8l-12.768 3.216c-3.792.96-6.432 4.32-6.432 8.208V75.6L16 57.6v15.744c0 11.712 8.88 21.216 20.256 22.416L49.6 96l13.344-.24C74.32 94.56 83.2 85.056 83.2 73.344V57.6l-14.4 18zM49.6 76.8c-9.6 0-14.4 4.8-14.4 4.8L40 67.2h19.2L64 81.6s-4.8-4.8-14.4-4.8"></path></svg>