<svg class="svg-icon" fill="currentColor" style="" viewbox="0 0 96 96"> <title></title> <path d="M18.398 71.59.315 21.905a5.36 5.36 0 0 1 3.162-6.829l.036-.012L32.436 4.542a5.325 5.325 0 0 1 6.829 3.123l.012.037 1.04 2.88-21.28 58.526a13.4 13.4 0 0 0-.627 2.397zm77.287-48.323L72.004 88.394c-.756 2.052-2.695 3.49-4.969 3.49-.657 0-1.287-.12-1.869-.34l.036.012-32.922-12c-2.067-.775-3.513-2.734-3.513-5.032 0-.648.114-1.27.327-1.845l-.012.036L52.762 7.63c.763-2.068 2.716-3.514 5.005-3.514a5.3 5.3 0 0 1 1.834.324l-.036-.012L92.487 16.43c2.067.774 3.513 2.734 3.513 5.032 0 .648-.114 1.269-.327 1.845l.012-.036zm-20 25.76-2.08-4.881a2.683 2.683 0 0 0-3.497-1.434l.018-.006-4 1.761a2.68 2.68 0 0 1-3.474-1.422l-.006-.018-1.72-4a2.646 2.646 0 0 0-3.498-1.395l.018-.006-4.92 2.08a2.61 2.61 0 0 0-1.63 2.412c0 .387.085.753.238 1.083l-.006-.015 5.88 13.882a2.724 2.724 0 0 0 3.538 1.392l-.018.006 13.84-5.92a2.605 2.605 0 0 0 1.191-3.534l.006.015z"></path></svg>