<svg class="svg-icon" fill="currentColor" style="" viewbox="0 0 96 96"> <title></title> <path d="M88.736 40.644 51.972 3.564a5.3 5.3 0 0 0-3.797-1.595 5.3 5.3 0 0 0-3.794 1.594L7.22 40.605A25.28 25.28 0 0 0 0 58.332c0 13.375 10.351 24.335 23.478 25.303l.084.005h1.837a25.5 25.5 0 0 0 10.944-2.463l-.155.066a37.3 37.3 0 0 1-8.787 7.46l-.162.092a2.84 2.84 0 0 0-1.322 2.398 2.84 2.84 0 0 0 2.796 2.838h38.523a2.838 2.838 0 0 0 1.49-5.23l-.013-.006c-3.371-2.089-6.254-4.567-8.709-7.423l-.042-.048c3.162 1.51 6.872 2.392 10.786 2.397h1.84C85.733 82.672 96 71.746 96 58.425a25.3 25.3 0 0 0-7.273-17.781l.002.003zM46.62 57.187l-2.637 11.23H17.01l2.316-10.91.758-.398c10.109-5.074 15.905-8.352 15.905-9.83a5.36 5.36 0 0 0-2.332-.399h.012a9.9 9.9 0 0 0-5.898 2.017l.024-.018-1.678 1.2-5.074-9.39 1.2-.96c3.296-2.496 7.467-3.997 11.99-3.997q.126 0 .251.003h-.011c8.39 0 14.265 4.516 14.265 10.99a12.44 12.44 0 0 1-6.566 10.516l-.066.033zm21.976 11.23H56.168l3.237-14.746-3.318 2.719-5.955-7.993L65.318 36.05h10.39z"></path></svg>