<svg class="svg-icon" fill="currentColor" style="" viewbox="0 0 96 96"> <title></title> <path clip-rule="evenodd" d="M47.967.003c11.319 0 21.723 3.919 29.83 10.401l.096.075C88.927 19.267 96 32.819 96 48.024c0 26.388-21.303 47.799-47.667 47.973h-.018c-9.517-.18-17.174-7.949-17.174-17.507 0-1.916.305-3.76.839-5.361l.165-.585c.95-2.944 2.063-5.819 3.115-8.088a15.2 15.2 0 0 0 8.806 2.793c.375 0 .75-.012 1.068-.036-2.318 7.556 2.6 17.39 2.6 17.39 14.55-14.55 10.913-25.464 10.913-25.464C76.835 40.95 73.197 22.76 73.197 22.76S55.01 19.12 36.82 37.31c0 0-10.914-3.639-25.464 10.954 0 0 9.834 4.917 17.39 2.6q-.033.496-.033.998c0 3.322 1.046 6.401 2.791 8.875l.492-.201c-2.785 1.268-5.66 2.38-9.166 3.478l.123-.036a17.5 17.5 0 0 1-5.403.848c-9.6 0-17.4-7.705-17.55-17.282v-.36C.423 21.054 21.738.003 47.967.003m-19.222 50.86.003-.048zm6.515 13.593v-.001l-.048-.033zM62.29 40.95l-.003.003.006-.006zm-7.286-7.275a5.13 5.13 0 0 0-1.267 3.387 5.16 5.16 0 0 0 8.553 3.888 5.13 5.13 0 0 0 1.266-3.387 5.16 5.16 0 0 0-8.553-3.888m0 0 .002-.003-.006.006z" fill-rule="evenodd"></path></svg>