<svg class="svg-icon" fill="currentColor" style="" viewbox="0 0 96 96"> <title></title> <path d="M78.04 10.134C65.433-.1 54.261 0 49.96 0h-.543c-3.312 0-6.723.099-10.233.791-5.14 1.038-11.567 3.806-18.438 9.343C18.62 12.21 16 15.424 16 18.784v15.671l18.785-15.917 6.673 5.289 30.896-6.426 10.48 18.537V18.785c0-3.708-2.62-6.575-4.795-8.651M16 40.783v30.401c.05 1.73.297 3.263.692 4.697C19.114 84.976 27.222 92.242 36.17 96l-.099-30.847zM62.665 96c8.997-3.757 17.055-11.024 19.477-20.12a19.5 19.5 0 0 0 .692-4.696V40.783l-20.07 24.42-.099 30.846z"></path></svg>