<svg class="svg-icon" fill="currentColor" style="" viewbox="0 0 96 96"> <title></title> <path d="M96 36.639c0-7.303-5.162-9.82-8.243-10.671.24-9.089-.84-15.134-.84-15.134s-1.601 1.988-18.088 1.379S48.02 0 48.02 0s-4.28 11.604-20.768 12.254c-16.487.649-18.088-1.38-18.088-1.38s-1.76 9.981-.24 23.615C-1.16 35.746-.32 43.537.361 54.208 1 64.595 21.769 71.452 21.769 71.452 27.692 80.46 36.095 89.062 48.02 96c15.047-8.764 24.53-20.206 30.413-31.81C96.641 64.19 96 47.025 96 36.638m-69.268-11.24c.8 0 1.6 0 2.48-.04 8.564-.324 14.607-4.098 18.808-7.06 4.202 2.962 10.245 6.736 18.808 7.06.84 0 1.68.04 2.481.04 1.36 0 3.602-.08 6.163-.405-.04 3.003-.28 6.451-.76 10.144-14.126-.203-37.456-.65-53.463-.771-.4-3.368-.6-6.573-.64-9.373 2.561.365 4.802.406 6.162.406zM48.02 82.287c-7.163-5.032-12.925-11.28-17.327-18.746 9.724.162 22.77.447 34.335.568-4.362 7.182-10.005 13.268-17.008 18.178"></path></svg>