<svg class="svg-icon" fill="currentColor" style="" viewbox="0 0 96 96"> <title></title> <path d="M84 40.58V24.108C84 10.758 75.986 1.441 59.617 0H40.431C24.354 2.45 16 10.757 16 24.06v16.52l6.654-11.718.243-7.587S23.431 8.212 50 8.212c26.617 0 27.103 13.015 27.103 13.015l.243 7.635zM53.983 59.166h-8.014c-13.358 0-19.04 11.766-19.04 11.766L16 52.826v19.066C16 85.242 26.929 96 40.383 96h19.186C73.07 96 83.95 85.195 83.95 71.892V52.826L73.023 70.932s-6.217-11.766-19.04-11.766m3.837 24.588c-4.809 1.152-10.686 1.2-15.494.096-6.217-1.44-9.812-8.356-6.606-13.831.486-.768 1.069-1.537 1.797-2.113 1.214-1.009 2.817-1.345 4.372-1.345h16.077c2.477 0 4.954 1.105 6.265 3.218 0 .048.098.144.098.192 3.302 5.427-.389 12.294-6.606 13.83z"></path><path d="M22.266 53.979c-3.449 0-6.266-2.785-6.266-6.195V30.495h27.394c1.895 0 3.497 1.537 3.497 3.458l-1.651 15.56a5.026 5.026 0 0 1-5.003 4.466zm55.468 0c3.449 0 6.266-2.785 6.266-6.195V30.495H56.606c-1.895 0-3.497 1.537-3.497 3.458l1.651 15.56a5.026 5.026 0 0 0 5.003 4.466z"></path><path d="M58.597 35.154H41.451v7.491h17.146z"></path></svg>