<svg class="svg-icon" fill="currentColor" style="" viewbox="0 0 96 96"> <title></title> <path d="M57.303 46.748c0-10.963-26.044-20.735-50.444-24.087A45.8 45.8 0 0 0 0 46.748c0 8.503 2.38 16.85 6.86 24.086 24.399-3.352 50.443-13.171 50.443-24.086"></path><path d="M48 0a48.5 48.5 0 0 0-22.457 5.42A48.3 48.3 0 0 0 8.175 20.657c39.026 1.942 75.939 9.772 75.39 26.09.549 16.303-36.818 24.29-75.39 26.091A48.5 48.5 0 0 0 25.543 88.06 48.3 48.3 0 0 0 48 93.48c26.513 0 48-20.938 48-46.731S74.513 0 48 0"></path></svg>