<svg class="svg-icon" fill="currentColor" style="" viewbox="0 0 96 96"> <title></title> <path clip-rule="evenodd" d="M49.68 0c5.67.096 10.763.625 15.616 2.883v24.84H34.065V2.884C38.822.625 44.011.096 49.681 0m-8.118 50.402h17.874l.047-.048 7.448 11.436 16.336-7.976v15.471c-.096 1.634-.336 3.123-.72 4.517C78.895 86.87 62.75 96 49.634 96S20.372 86.919 16.72 73.802c-.385-1.394-.673-2.883-.721-4.517V50.883l17.922 10.33zm0 20.71H58.57c1.874-.481 2.018-2.884 2.018-2.884L56.6 60.925H43.916l-4.468 7.88c.672 1.537 2.114 2.306 2.114 2.306M27.627 5.813h-.097c-1.873.913-4.9 3.075-6.726 5.093-2.162 2.114-4.757 5.381-4.757 8.793v25.369l11.58-8.216zm50.41 4.703q.249.198.475.39l.048.048c2.114 2.114 4.757 5.381 4.757 8.793v25.705l-11.724-7.88V5.813c2.018 1.01 4.18 2.787 5.814 4.18.213.187.426.359.63.524" fill-rule="evenodd"></path></svg>