<svg class="svg-icon" fill="currentColor" style="" viewbox="0 0 96 96"> <title></title> <path d="M16.353 72.54c-5.473-1.316-7.017-5.168-6.369-17.772 0 0-10.602 14.32-1.335 23.073 9.268 8.753 22.54 1.201 28.375-9.42l-6.37-5.568s-8.199 11.136-14.32 9.668z"></path><path d="M56.718 48.284c-.267-3.394 2.88-5.911 4.863-7.131.705-.439 1.62.076 1.582.915-.21 5.053-4.443 5.148-4.443 5.148-.133 4.367 3.585 8.353 3.585 8.353l1.583 1.449c4.634 6.502 10.602 9.935 10.602 9.935-1.334-4.367 3.318-12.07 12.319-20.156 7.97-7.15 9.039-16.78 9.191-18.916 0-.267 0-.534-.038-.82-1.507-9.516-8.848-18.44-12.338-22.235-.972-1.048-2.612-1.106-3.68-.133-9.439 8.6-22.825 12.68-22.825 12.68 3.585.802 5.835 4.1 5.835 4.1s-6.045-2.517-14.95-2.517-14.95 2.518-14.95 2.518 2.25-3.318 5.835-4.1c0 0-13.406-4.081-22.826-12.681-1.067-.973-2.707-.915-3.68.133C8.893 8.621 1.553 17.546.046 27.061a4 4 0 0 0-.039.82c.134 2.135 1.22 11.765 9.192 18.916 9.02 8.085 13.653 15.77 12.318 20.156 0 0 5.969-3.452 10.602-9.935l1.583-1.45s3.718-3.985 3.585-8.352c0 0-4.233-.114-4.443-5.148-.038-.82.877-1.354 1.583-.915 1.964 1.22 5.13 3.718 4.862 7.131-.4 4.901-7.017 12.72-7.017 12.72l5.835 5.033 1.335-7.684s1.201 16.303 1.335 20.289c.133 3.985.476 13.92 7.265 13.92s7.132-9.935 7.265-13.92c.134-3.986 1.335-20.29 1.335-20.29l1.335 7.685 5.835-5.034s-6.636-7.818-7.017-12.719z"></path><path d="M79.637 72.54c-6.12 1.45-14.32-9.668-14.32-9.668l-6.37 5.568c5.836 10.602 19.088 18.154 28.375 9.42s-1.335-23.073-1.335-23.073c.668 12.585-.877 16.456-6.369 17.772z"></path></svg>