<svg class="svg-icon" fill="currentColor" style="" viewbox="0 0 96 96"> <title></title> <path d="M48.048 0C21.552 0 0 21.552 0 48s21.552 48 48.048 48S96 74.448 96 48 74.4 0 48.048 0M48 87.264c-1.104 0-2.16-.096-3.264-.144-9.744-6.288-18.672-15.408-17.904-28.512a7.6 7.6 0 0 1-4.512-2.64c-3.888 4.56-4.32 12.096-3.504 18.192-2.976-3.312-5.424-7.104-7.152-11.232 1.968-3.504 5.088-6.72 9.072-10.224a6.4 6.4 0 0 1-.144-1.344c0-.816.144-1.68.384-2.448-3.264-1.824-6.816-5.28-10.8-11.616 1.824-6.432 5.232-12.144 9.792-16.8-.24 7.872 1.776 19.392 3.888 24.672 1.2-.768 2.64-1.248 4.176-1.248.816 0 1.632.144 2.4.384C30 29.328 34.272 16.944 41.184 9.36c2.208-.384 4.464-.624 6.768-.624 8.928 0 17.136 3.024 23.712 8.112-20.4 2.16-34.416 19.968-38.928 28.848a7.5 7.5 0 0 1 2.448 3.984c13.728-11.136 36.672-17.328 51.648-6.528.192 1.584.336 3.216.336 4.896 0 2.256-.24 4.464-.624 6.576-15.648 14.208-34.752 13.248-51.408-1.392-.672 2.496-2.736 4.512-5.184 5.232 8.976 15.36 20.976 22.992 39.216 22.512-6.144 3.984-13.44 6.336-21.216 6.336z"></path></svg>