<svg class="svg-icon" fill="currentColor" style="" viewbox="0 0 96 96"> <title></title> <path clip-rule="evenodd" d="M19.656 30.16c.192-1.346.432-3.075-.096-5.236h.192c-1.249-5.282-5.715-8.644-8.692-10.42 0 0-.625-.577-.577-1.25.048-.576.48-.96.576-1.008 2.21-1.296 4.707-3.073 7.3-5.379a45.5 45.5 0 0 0 5.475-5.666c1.585.96 6.291 3.457 12.678 2.881A21.1 21.1 0 0 0 47.222 0c1.488 1.105 5.282 3.602 10.709 4.082 6.34.576 11.094-1.92 12.678-2.881a45.5 45.5 0 0 0 5.475 5.666 44.6 44.6 0 0 0 7.3 5.38c.096.047.528.431.576 1.008.048.72-.576 1.248-.576 1.248-2.978 1.777-7.444 5.139-8.693 10.421-.48 2.114-.288 3.794-.096 5.139.817 6.147 2.017 9.46 3.026 12.054.624 1.68 1.152 3.074 1.392 4.706.145 1.249.577 4.995-1.104 9.077-2.45 5.81-7.684 8.548-9.269 9.317-2.737 1.392-4.706 1.632-6.675 1.92-1.873.24-3.794.529-6.291 1.73-4.178 1.968-6.82 5.09-8.452 7.395-1.633-2.305-4.275-5.379-8.453-7.396-2.545-1.248-4.418-1.488-6.339-1.728-1.969-.289-3.938-.529-6.675-1.921-1.633-.865-6.868-3.554-9.269-9.317-1.729-4.082-1.248-7.876-1.104-9.077.24-1.632.72-3.025 1.392-4.706.96-2.593 2.21-5.907 3.026-12.006zM47.03 13.398l-9.173 15.944h.048v16.904l18.297 11.526V29.775zM4 59.789l8.068-3.889c1.105 2.065 2.45 4.61 4.178 6.771l-6.675 5.907-.528-.624C6.833 65.264 5.2 62.095 4 59.838zm68.578 7.06c-2.69 1.681-4.946 2.017-7.492 2.45 0 0-.432.096-.672.096-3.17.528-6.867 1.152-10.757 4.274-2.593 2.065-5.283 4.418-6.675 7.492-.48-2.642-3.41-4.899-5.86-6.772a28 28 0 0 1-1.248-1.008c-3.89-3.122-7.54-3.746-10.757-4.274-.24 0-.433-.097-.673-.097-2.545-.432-4.802-.816-7.491-2.449-1.201-.72-1.873-1.2-2.93-2.353l-6.82 6.147c1.73 1.873 3.122 2.93 5.14 4.13 4.465 2.69 8.307 3.41 11.333 3.89 2.785.48 4.37 1.057 6.82 2.45 4.898 2.88 10.276 8.884 12.293 14.55 0 .193.096.385.145.529V96s0-.096.096-.144c0 0 0 .096.047.144v-.24c1.97-5.811 7.444-12.006 12.487-14.84 2.401-1.392 4.082-1.969 6.82-2.449h.143c3.026-.528 6.772-1.2 11.19-3.89 2.017-1.248 3.458-2.305 5.138-4.13l-7.3-5.859c-1.056 1.153-1.728 1.633-2.929 2.353v-.096zm8.549-10.565.192-.384 8.644 3.842c-1.2 2.305-2.881 5.427-5.042 8.116l-.529.624-7.251-5.907c1.68-2.065 2.929-4.37 3.938-6.339z" fill-rule="evenodd"></path></svg>