<svg class="svg-icon" fill="currentColor" style="" viewbox="0 0 96 96"> <title></title> <path d="M96 17.072C96 9.872 90.175 4 82.929 4c-7.247 0-12.456 5.352-12.977 12.124H26C25.527 9.352 19.939 4 13.024 4 6.11 4 0 9.825 0 17.072a13.037 13.037 0 0 0 13.072 13.071c2.51 0 4.783-.758 6.772-1.942C16.908 48.093 6.867 46.53 6.867 63.011s16.53 29.98 41.062 29.98h.189c24.533 0 41.062-13.45 41.062-29.98 0-16.528-10.088-14.918-12.977-34.81a12.83 12.83 0 0 0 6.773 1.942c7.199 0 13.071-5.825 13.071-13.071zM23.16 66.706c0-12.456 8.003-16.956 8.477-28.938v38.078c-4.641-.426-8.478-3.22-8.478-9.188zm15.534 8.193V36.632h5.778v34.762c-1.61 1.516-3.6 2.7-5.778 3.505m12.834-3.505V36.632h5.778v38.22c-2.178-.758-4.167-1.942-5.778-3.505zm12.835 4.452V37.768c.521 11.982 8.478 16.434 8.478 28.938 0 5.967-3.837 8.714-8.478 9.187z"></path></svg>