<svg class="svg-icon" fill="currentColor" style="" viewbox="0 0 96 96"> <title></title> <path d="M88.96 21.89 77.675 3.761C76.235 1.44 73.674 0 70.952 0h-47.38a7.87 7.87 0 0 0-6.722 3.762L5.565 21.889c-3.201 5.122-1.32 11.925 4.082 14.646 0 0-1 7.804 1.04 17.968 1.961 8.283 6.563 17.407 17.007 22.85C43.301 85.475 41.22 96 41.22 96c49.54-14.406 43.698-59.505 43.698-59.505 5.402-2.72 7.283-9.524 4.082-14.646zm-71.87.48 4.322-6.804a3.73 3.73 0 0 1 3.161-1.72h14.006c2.08 0 3.721 1.68 3.721 3.721v13.286l-7.683 4.842 2.761 8.163-12.485-4.882c-1.44-.56-2.36-1.92-2.36-3.481v-4.642l-4.363-3.121c-1.72-1.241-2.2-3.602-1.04-5.363zm31.413 65.667s3.481-14.646-10.404-18.408C24.213 65.907 18.37 58.424 19.17 46.019c0 0 6.683 8.164 24.57 10.044 17.888 1.841 16.007 23.41 4.802 31.974zM63.509 72.03s3.282-9.204-1.28-13.526c-6.483-6.082 7.603-4.802 13.125-10.484 0 0-2.16 17.247-11.845 24.01m12.926-44.298-4.362 3.12v4.643a3.79 3.79 0 0 1-2.361 3.481l-12.485 4.882 2.76-8.163-7.682-4.842V17.567c0-2.08 1.68-3.721 3.721-3.721h14.006c1.28 0 2.481.64 3.161 1.72l4.322 6.803c1.12 1.801.68 4.162-1.04 5.363z"></path></svg>