<svg class="svg-icon" fill="currentColor" style="" viewbox="0 0 64 64"> <title></title> <path d="M32 1.916c-.288-.01-.628-.016-.97-.016C14.254 1.9.586 15.206.002 31.84L0 31.894A28.66 28.66 0 0 0 7.476 51.15l-.02-.024c-.688 4.028-1.89 7.636-3.552 10.974l.102-.228c4.634-.396 8.878-1.73 12.654-3.81l-.164.082c4.474 2.35 9.774 3.728 15.398 3.728h.112H32c.3.01.654.016 1.008.016 16.768 0 30.428-13.31 30.99-29.942l.002-.052C63.414 15.206 49.746 1.902 32.97 1.902q-.512 0-1.018.016l.05-.002zM16.138 37.604a5.948 5.948 0 1 1 0-11.896 5.948 5.948 0 0 1 0 11.896m15.862 0a5.948 5.948 0 1 1 0-11.896 5.948 5.948 0 0 1 0 11.896m15.862 0a5.948 5.948 0 1 1 0-11.896 5.948 5.948 0 0 1 0 11.896"></path></svg>