<svg class="svg-icon" fill="currentColor" style="" viewbox="0 0 96 96"> <title></title> <path d="M46 0C22.798 0 4 18.7 4 41.782c0 1.743.142 3.392.331 5.088a40.95 40.95 0 0 0 9.66 21.903V40.275c9.47-5.323 20.36-8.385 32.009-8.385 11.648 0 22.539 3.062 32.009 8.385v28.498c5.161-6.076 8.618-13.613 9.66-21.903.189-1.65.331-3.345.331-5.088C87.953 18.701 69.155 0 46 0"></path><path d="M22.94 46.304v31.09c0 1.13.237 2.213.474 3.156C25.924 89.688 36.719 96 46 96s20.124-6.36 22.586-15.45c.237-.942.426-2.026.474-3.156v-31.09c-7.103-3.015-14.868-4.71-23.06-4.71s-15.957 1.695-23.06 4.71"></path></svg>