<svg class="svg-icon" fill="currentColor" style="" viewbox="0 0 96 96"> <title></title> <path d="M83.2 17.088v51.648a19 19 0 0 1-.72 4.608C78.88 86.688 63.088 96 49.6 96s-29.232-9.312-32.88-22.656c-.384-1.344-.624-2.928-.72-4.608V17.088c0-3.264 2.64-6.432 4.848-8.448C26.56 4.128 31.936 1.584 36.592.288v25.584H26.416c-1.296 0-3.456-.096-1.92 2.16l22.368 28.176s.48.432.864.48c.768.336 1.872.336 1.872.336s1.056 0 1.824-.336c.384 0 .576-.384.864-.48l22.368-28.176c1.488-2.256-.624-2.16-1.92-2.16H62.56V0c4.656 1.296 10.176 4.032 15.936 8.64 2.16 2.064 4.8 5.184 4.8 8.448z"></path></svg>