<svg class="svg-icon" fill="currentColor" style="" viewbox="0 0 96 96"> <title></title> <path clip-rule="evenodd" d="M58.405.768C63.4 1.777 69.691 4.466 76.318 9.845l-.048.048c2.065 2.017 4.61 5.139 4.61 8.404v12.486l-15.175-4.898 5.57 13.159-47.303-13.159v14.407L16 44.855V18.249c0-3.265 2.545-6.387 4.658-8.404C32.742-.003 43.554-.001 47.818 0h.646c3.218 0 6.532.096 9.941.768m.288 57.437 6.243 10.853v-.048l8.933-13.206 7.06-2.69v15.993a19 19 0 0 1-.673 4.562C76.75 86.827 61.143 96 48.464 96c-12.678 0-28.286-9.173-31.792-22.331A19 19 0 0 1 16 69.107v-16.33l9.989 4.419 7.3 11.861 6.483-10.853zm-17.72 19.258h16.376v-.048c1.585-.385 1.44-2.161 1.44-2.161l-4.13-8.5H43.566l-3.938 8.355c-.144 1.201 1.344 2.354 1.344 2.354" fill-rule="evenodd"></path></svg>