<svg class="svg-icon" fill="currentColor" style="" viewbox="0 0 96 96"> <title></title> <path clip-rule="evenodd" d="M40.155 0h18.97c13.302 0 24.108 10.757 24.108 24.108v20.506l-10.95-12.726v-9.605c-15.08-7.348-30.255-7.3-45.43 0v9.605L16.046 44.614V24.108C16.047 10.805 26.804 0 40.155 0m20.171 52.826c1.873 0 3.602.865 4.706 2.306l7.348 9.46 10.806-11.766v19.066C83.186 85.195 72.428 96 59.077 96H40.109C26.805 96 16 85.243 16 71.892V52.826l10.805 11.766 7.348-9.46c1.153-1.441 2.882-2.306 4.706-2.306zM36.938 76.022c8.453 3.122 16.953 3.122 25.405 0h.048c2.113-.768 3.458-2.978 2.978-5.187l-2.065-9.892H36.026l-2.065 9.892c-.48 2.21.816 4.419 2.977 5.187" fill-rule="evenodd"></path></svg>