<svg class="svg-icon" fill="currentColor" style="" viewbox="0 0 64 64"> <title></title> <path clip-rule="evenodd" d="m56.339.05.03-.004Q56.76 0 57.164 0a6.835 6.835 0 0 1 6.789 7.63l-.8 6.836-.011.134a28.9 28.9 0 0 1-8.262 17.083L44.188 42.366l.93 8.474L31.977 64l-1.639-12.92c-8.374-3.029-14.1-8.944-17.437-17.438L0 32.023l13.16-13.14 8.474.929L32.317 9.119C36.807 4.643 42.76 1.63 49.534.845L56.336.05zl.03-.004zM36.284 18.932a7.995 7.995 0 0 0 7.994 7.995v.04a7.995 7.995 0 0 0 7.994-7.995v-.04a7.995 7.995 0 0 0-15.988 0M8.636 41.125c2.4 6.9 7.869 12.369 14.938 14.82 0 0-4.697 8.465-20.676 5.647C.07 45.613 8.584 40.957 8.584 40.957z" fill-rule="evenodd"></path></svg>