<svg class="svg-icon" fill="currentColor" style="" viewbox="0 0 96 96"> <title></title> <path clip-rule="evenodd" d="M48.117 24.078c6.648 0 12.04-5.391 12.04-12.039S54.764 0 48.116 0 36.078 5.391 36.078 12.039s5.391 12.039 12.04 12.039M3.594 50.246l40.003 18.4a10.3 10.3 0 0 0 4.32.933 10.4 10.4 0 0 0 4.387-.96l-.066.027 40.003-18.4a2.61 2.61 0 0 0 1.509-2.362 2.6 2.6 0 0 0-1.494-2.352l-.015-.006-39.445-18.16v16.36a4.8 4.8 0 0 1-4.8 4.8 4.8 4.8 0 0 1-4.801-4.8v-16.36L3.59 45.526a2.61 2.61 0 0 0-1.509 2.361c0 1.041.612 1.939 1.494 2.353l.015.006zm40.403 28.922L2.074 60.206V72.82c0 1.932 1.134 3.6 2.772 4.377l.03.012L44 95.13c1.173.55 2.55.87 4 .87 1.449 0 2.826-.32 4.059-.893l-.06.024 39.124-17.92c1.668-.79 2.799-2.458 2.799-4.39V60.206L51.999 79.169a9.3 9.3 0 0 1-4 .888 9.4 9.4 0 0 1-4-.889l.001-.002-.057-.024z" fill-rule="evenodd"></path></svg>