<svg class="svg-icon" fill="currentColor" style="" viewbox="0 0 96 96"> <title></title> <path clip-rule="evenodd" d="M56.8 47.08a49.76 49.76 0 0 0-5.6 22.8v5H32.32a55.6 55.6 0 0 1 5-22.76A87 87 0 0 1 50.8 31h-28V16.36H72v7.76a134 134 0 0 0-15.2 22.96m26.4 16.24a30.56 30.56 0 0 0-6 13.04l-.6 3L60 76.32a38.12 38.12 0 0 1 13.36-22.28l-12-2.36 5.04-10.64L96 46.88l-.92 4.64a85.5 85.5 0 0 0-11.88 11.8m-58.52 9.32a30.1 30.1 0 0 1 0-14.36 79.7 79.7 0 0 1 5.8-15.84l-1.12-4.6L0 44.88v11.68l12-2.84a37.88 37.88 0 0 0-2.88 25.92l16.28-4z" fill-rule="evenodd"></path></svg>