<svg class="svg-icon" fill="currentColor" style="" viewbox="0 0 96 96"> <title></title> <path d="M16.104 51.236v-5.517c-.233 3.31 0 5.517 0 5.517M49.923 0l3.168 15.4h.093c1.724 0 6.708 0 11.972 2.83 0 0 3.4-18.23-15.233-18.23"></path><path d="M64.877 5.325s7.174 5.997 6.708 16.215c0 0 5.264 2.303 8.385 8.875V28.4c.14-8.107.419-22.307-15.093-23.075M47.548 0 44.38 15.4h-.093c-1.724 0-6.708 0-11.972 2.83 0 0-3.401-18.23 15.233-18.23"></path><path d="M32.548 5.325s-7.174 5.997-6.709 16.215c0 0-5.263 2.303-8.385 8.875V28.4c-.14-8.107-.419-22.307 15.094-23.075m46.77 68.555c.372-1.44.652-3.023.652-4.702V41.065c-5.031-9.019-17.05-16.982-30.932-17.03-14.394-.048-26.087 7.244-31.63 17.27v27.92c.046 1.68.28 3.263.652 4.702 2.236 8.78 9.596 15.88 17.842 19.621l.419.144c2.935.96 6.894 2.207 11.646 2.303 5.31.096 9.736-1.2 12.997-2.159l.419-.144c3.587-1.727 14.953-7.771 17.981-19.813z"></path></svg>